<svg width="96" height="96" viewBox="0 0 96 96" fill="none" xmlns="http://www.w3.org/2000/svg">
<circle cx="48" cy="48" r="48" fill="#34435B"/>
<path fill-rule="evenodd" clip-rule="evenodd" d="M66.0079 24.5402C62.9679 21.2711 58.2455 19.6364 51.841 19.6364C45.2188 19.6364 39.4514 21.631 34.5397 25.6197C31.0463 28.4567 28.4154 32.0827 26.6378 36.4899L37.6542 38.6155C38.6336 36.1425 40.0243 33.9815 41.8471 32.1484C44.493 29.4876 47.3226 28.1567 50.3348 28.1567C53.5102 28.1567 55.7015 28.9841 56.9095 30.6372C58.1164 32.291 58.6396 34.6323 58.4765 37.6619H69.5492L69.6714 37.4346C70.268 32.1083 69.0467 27.81 66.0079 24.5402Z" fill="#FE4200"/>
<path fill-rule="evenodd" clip-rule="evenodd" d="M23.2798 49.7152L35.8444 45.5591L36.1187 44.2806L24.8651 42.3645L23.2798 49.7152Z" fill="#FEA100"/>
<path fill-rule="evenodd" clip-rule="evenodd" d="M25.7058 69.9826C29.3151 74.237 34.2814 76.3636 40.6055 76.3636C45.9515 76.3636 50.5385 75.5179 54.365 73.8263C58.1916 72.1351 61.1902 70.2037 63.3616 68.0325L67.7582 47.4696H46.7931L45.1648 55.1193H54.4056L52.2483 65.0869C51.3251 65.8418 50.0293 66.4903 48.3604 67.0312C46.6912 67.5725 44.7169 67.843 42.4374 67.843C38.909 67.843 36.3919 66.6012 34.8857 64.1166C33.3796 61.6327 33.1151 58.1707 34.0921 53.7316C34.441 52.1458 34.7258 51.0667 34.8654 50.3652L34.8102 50.3839L22.2365 54.6457C21.1083 60.8094 22.261 65.9232 25.7058 69.9826Z" fill="#FEE900"/>
</svg>
